<?xml version="1.0" encoding="UTF-8"?>
<svg xmlns="http://www.w3.org/2000/svg" xmlns:xlink="http://www.w3.org/1999/xlink" width="100px" height="100px" viewBox="0 0 100 100" version="1.1">
<g id="surface1">
<path style=" stroke:none;fill-rule:nonzero;fill:rgb(0%,0%,0%);fill-opacity:1;" d="M 75.894531 70.105469 C 75.664062 69.199219 74.738281 68.652344 73.832031 68.882812 C 67.746094 70.445312 60.5 71.238281 52.300781 71.238281 C 41.507812 71.238281 31.523438 69.847656 23.417969 67.21875 C 22.527344 66.933594 21.570312 67.417969 21.28125 68.3125 C 20.992188 69.203125 21.480469 70.160156 22.371094 70.449219 C 30.808594 73.1875 41.15625 74.632812 52.300781 74.632812 C 60.785156 74.632812 68.3125 73.804688 74.675781 72.171875 C 75.582031 71.9375 76.128906 71.011719 75.894531 70.105469 Z M 75.894531 70.105469 "/>
<path style=" stroke:none;fill-rule:nonzero;fill:rgb(0%,0%,0%);fill-opacity:1;" d="M 79.445312 14.109375 C 78.542969 13.863281 77.609375 14.394531 77.359375 15.296875 C 77.113281 16.203125 77.644531 17.136719 78.546875 17.382812 C 83.0625 18.617188 87.53125 21.851562 90.808594 26.253906 C 93.453125 29.808594 96.605469 35.84375 96.605469 44.398438 C 96.605469 54.617188 91.28125 62.074219 80.777344 66.558594 C 79.914062 66.929688 79.515625 67.925781 79.882812 68.785156 C 80.15625 69.429688 80.785156 69.816406 81.445312 69.816406 C 81.667969 69.816406 81.890625 69.773438 82.109375 69.679688 C 88.734375 66.851562 93.585938 62.824219 96.554688 57.769531 C 96.097656 65.363281 92.492188 71.363281 85.816406 75.621094 C 78.207031 80.476562 66.929688 82.9375 52.300781 82.9375 C 38.0625 82.9375 25.285156 80.496094 16.320312 76.066406 C 7.984375 71.945312 3.394531 66.371094 3.394531 60.375 L 3.394531 58.449219 C 5.621094 61.472656 8.90625 64.21875 13.140625 66.539062 C 13.402344 66.679688 13.679688 66.75 13.957031 66.75 C 14.554688 66.75 15.136719 66.429688 15.445312 65.867188 C 15.894531 65.042969 15.59375 64.011719 14.773438 63.5625 C 7.433594 59.546875 3.394531 54.257812 3.394531 48.679688 C 3.394531 44.621094 4.574219 41.71875 6.902344 40.050781 C 10.414062 37.539062 16.910156 37.628906 24.726562 40.296875 C 37.132812 44.527344 43.878906 36.152344 49.832031 28.761719 L 50.171875 28.339844 C 55.191406 22.109375 62.785156 17.996094 71.003906 17.054688 C 71.933594 16.945312 72.601562 16.105469 72.496094 15.175781 C 72.390625 14.242188 71.554688 13.574219 70.617188 13.683594 C 61.523438 14.722656 53.105469 19.289062 47.527344 26.210938 L 47.1875 26.632812 C 44.347656 30.160156 41.414062 33.804688 37.996094 35.960938 C 34.292969 38.300781 30.425781 38.65625 25.820312 37.085938 C 20.613281 35.304688 10.96875 32.96875 4.925781 37.292969 C 1.65625 39.628906 0 43.460938 0 48.679688 L 0 60.375 C 0 67.730469 5.261719 74.386719 14.816406 79.109375 C 24.375 83.832031 37.335938 86.328125 52.300781 86.328125 C 67.585938 86.328125 79.480469 83.6875 87.644531 78.484375 C 95.726562 73.328125 100 65.585938 100 56.09375 L 100 44.398438 C 100 28.207031 89.660156 16.90625 79.445312 14.109375 Z M 79.445312 14.109375 "/>
<path style=" stroke:none;fill-rule:nonzero;fill:rgb(0%,0%,0%);fill-opacity:1;" d="M 87.460938 25.738281 C 83.757812 21.644531 78.878906 19.105469 74.726562 19.105469 C 65.832031 19.105469 57.308594 23.085938 51.933594 29.757812 L 51.59375 30.179688 C 46.742188 36.203125 40.710938 43.695312 31.105469 43.695312 C 28.832031 43.695312 26.441406 43.269531 23.996094 42.4375 C 20.246094 41.15625 16.746094 40.480469 13.878906 40.480469 C 11.160156 40.480469 9.121094 41.0625 7.8125 42.210938 C 6.382812 43.46875 5.65625 45.644531 5.65625 48.679688 C 5.65625 52.636719 8.148438 56.464844 12.863281 59.753906 C 17.488281 62.976562 24.058594 65.515625 31.875 67.089844 C 31.988281 67.113281 32.097656 67.125 32.210938 67.125 C 33 67.125 33.710938 66.566406 33.871094 65.761719 C 34.058594 64.84375 33.464844 63.949219 32.542969 63.761719 C 31.078125 63.46875 29.6875 63.144531 28.367188 62.796875 L 26.046875 56.507812 C 25.722656 55.628906 24.746094 55.179688 23.867188 55.503906 C 22.988281 55.828125 22.539062 56.804688 22.863281 57.683594 L 24.300781 61.578125 C 13.832031 58.027344 9.050781 52.855469 9.050781 48.679688 C 9.050781 46.039062 9.679688 45.089844 10.054688 44.761719 C 10.695312 44.199219 12.089844 43.875 13.878906 43.875 C 15.09375 43.875 16.457031 44.019531 17.921875 44.300781 L 20.753906 51.96875 C 21.007812 52.65625 21.65625 53.078125 22.34375 53.078125 C 22.539062 53.078125 22.738281 53.046875 22.933594 52.972656 C 23.8125 52.648438 24.261719 51.671875 23.9375 50.792969 L 21.917969 45.328125 C 22.242188 45.429688 22.570312 45.535156 22.898438 45.648438 C 25.699219 46.605469 28.460938 47.089844 31.105469 47.089844 C 34.070312 47.089844 36.710938 46.511719 39.09375 45.550781 L 46.4375 65.4375 C 44.363281 65.335938 42.335938 65.175781 40.371094 64.960938 C 39.4375 64.859375 38.601562 65.535156 38.5 66.464844 C 38.398438 67.398438 39.074219 68.234375 40.003906 68.335938 C 43.914062 68.761719 48.050781 68.976562 52.300781 68.976562 C 66.292969 68.976562 77.460938 66.570312 84.601562 62.015625 C 85.390625 61.511719 85.625 60.464844 85.121094 59.675781 C 84.617188 58.882812 83.566406 58.652344 82.777344 59.15625 C 79.507812 61.238281 75.269531 62.835938 70.203125 63.917969 L 66.667969 54.339844 C 66.34375 53.460938 65.367188 53.011719 64.488281 53.335938 C 63.609375 53.660156 63.160156 54.636719 63.484375 55.515625 L 66.816406 64.542969 C 62.46875 65.230469 57.605469 65.582031 52.300781 65.582031 C 51.5625 65.582031 50.828125 65.574219 50.097656 65.558594 L 42.152344 44.03125 C 47.195312 41.046875 50.964844 36.371094 54.234375 32.308594 L 54.574219 31.886719 C 54.617188 31.835938 54.664062 31.78125 54.707031 31.730469 L 61.429688 49.949219 C 61.683594 50.636719 62.332031 51.058594 63.023438 51.058594 C 63.21875 51.058594 63.414062 51.027344 63.609375 50.953125 C 64.488281 50.628906 64.9375 49.65625 64.613281 48.773438 L 57.320312 29.015625 C 61.332031 25.453125 66.535156 23.191406 72.058594 22.632812 L 74.78125 30.015625 C 75.035156 30.699219 75.683594 31.125 76.375 31.125 C 76.570312 31.125 76.765625 31.089844 76.960938 31.019531 C 77.839844 30.695312 78.289062 29.71875 77.964844 28.839844 L 75.648438 22.558594 C 78.648438 22.921875 82.195312 24.980469 84.945312 28.015625 C 88.816406 32.296875 90.949219 38.113281 90.949219 44.398438 C 90.949219 47.609375 90.316406 50.34375 89.007812 52.757812 C 88.5625 53.582031 88.867188 54.609375 89.691406 55.054688 C 90.515625 55.503906 91.542969 55.195312 91.992188 54.375 C 93.550781 51.492188 94.34375 48.132812 94.34375 44.398438 C 94.34375 37.269531 91.898438 30.644531 87.460938 25.738281 Z M 87.460938 25.738281 "/>
<path style=" stroke:none;fill-rule:nonzero;fill:rgb(0%,0%,0%);fill-opacity:1;" d="M 86.785156 52.738281 L 79.828125 33.882812 C 79.5 33.003906 78.527344 32.554688 77.648438 32.878906 C 76.765625 33.203125 76.316406 34.179688 76.640625 35.058594 L 83.601562 53.914062 C 83.855469 54.601562 84.503906 55.023438 85.195312 55.023438 C 85.390625 55.023438 85.589844 54.992188 85.78125 54.917969 C 86.660156 54.59375 87.109375 53.617188 86.785156 52.738281 Z M 86.785156 52.738281 "/>
</g>
</svg>
